<?xml version="1.0" encoding="UTF-8" standalone="no"?>
<!-- Created with Inkscape (http://www.inkscape.org/) -->

<svg
   width="210mm"
   height="297mm"
   viewBox="0 0 210 297"
   version="1.1"
   id="svg5"
   xml:space="preserve"
   sodipodi:docname="Logo.svg"
   inkscape:version="1.2 (dc2aedaf03, 2022-05-15)"
   xmlns:inkscape="http://www.inkscape.org/namespaces/inkscape"
   xmlns:sodipodi="http://sodipodi.sourceforge.net/DTD/sodipodi-0.dtd"
   xmlns="http://www.w3.org/2000/svg"
   xmlns:svg="http://www.w3.org/2000/svg"><sodipodi:namedview
     id="namedview7"
     pagecolor="#ffffff"
     bordercolor="#000000"
     borderopacity="0.25"
     inkscape:showpageshadow="2"
     inkscape:pageopacity="0.0"
     inkscape:pagecheckerboard="0"
     inkscape:deskcolor="#d1d1d1"
     inkscape:document-units="mm"
     showgrid="false"
     inkscape:zoom="0.52724989"
     inkscape:cx="453.2955"
     inkscape:cy="523.47095"
     inkscape:window-width="1920"
     inkscape:window-height="1017"
     inkscape:window-x="1912"
     inkscape:window-y="-8"
     inkscape:window-maximized="1"
     inkscape:current-layer="layer1" /><defs
     id="defs2" /><g
     inkscape:label="Calque 1"
     inkscape:groupmode="layer"
     id="layer1"><path
       style="fill:#ffffff;stroke-width:0.734183"
       d="m 102.98878,282.28717 c 0,-0.44532 1.07374,-0.84873 2.38609,-0.89651 l 2.38612,-0.0867 -2.20257,-0.56044 c -1.3669,-0.34781 1.58104,-0.59341 7.77012,-0.64731 5.48496,-0.0478 10.21625,-0.33045 10.51394,-0.62815 0.29772,-0.2977 0.93094,-0.55492 1.40718,-0.5716 3.13693,-0.10987 11.41837,-2.16193 10.64756,-2.6383 -1.10424,-0.68247 -9.99553,0.0167 -11.76817,0.92382 -3.1105,1.59381 -60.20114,2.23775 -61.742503,0.69638 -0.584911,-0.5849 -0.212106,-0.80885 1.360075,-0.81701 1.694768,-0.008 1.926312,-0.17177 1.064563,-0.74997 -1.101085,-0.73858 18.592583,-0.40892 24.228096,0.40561 1.972528,0.2851 2.228429,0.21088 1.101274,-0.31908 -0.807606,-0.37977 -1.137992,-0.75785 -0.734189,-0.84018 1.425862,-0.29072 -6.666328,-1.29419 -11.012768,-1.36562 -2.422804,-0.0397 -5.719593,-0.28945 -7.326188,-0.55473 l -2.9211,-0.48232 2.554,-0.86007 2.554001,-0.86008 -4.964865,-0.93694 c -2.730664,-0.5153 -5.15845,-1.25018 -5.395098,-1.63307 -0.261607,-0.42333 0.616594,-0.49977 2.240732,-0.19509 2.058832,0.38624 2.622227,0.27082 2.458349,-0.50382 -0.125654,-0.59384 0.23787,-0.87505 0.888684,-0.68749 1.326181,0.38225 3.300151,0.52114 16.152052,1.13655 7.024359,0.33632 9.686009,0.24612 9.137389,-0.30936 -0.425749,-0.43112 -4.390354,-0.92216 -8.810215,-1.09112 -4.419859,-0.169 -8.86207,-0.62754 -9.87157,-1.019 l -1.835458,-0.71174 1.835458,-0.43611 c 1.0095,-0.23974 3.322187,-0.54812 5.139278,-0.68499 2.906182,-0.21895 2.78446,-0.26448 -1.011171,-0.37717 -6.059461,-0.1801 -13.016297,-3.66231 -16.326636,-8.1721 -1.346821,-1.83484 -2.456932,-3.74902 -2.466947,-4.25376 -0.02313,-1.16677 1.619859,-1.18854 2.771689,-0.0366 1.14475,1.14476 1.207169,-0.29774 0.111646,-2.5812 -0.423141,-0.88201 1.146186,0.46355 3.487378,2.99013 2.341182,2.52663 4.658056,4.5915 5.148599,4.58869 0.490553,-0.003 1.245535,0.65558 1.677755,1.46321 1.814615,3.3906 2.539259,0.11854 0.863429,-3.89867 -0.473376,-1.13475 -1.165054,-1.87506 -1.537064,-1.64517 -0.73042,0.45145 -2.997293,-1.4838 -2.997293,-2.55881 0,-1.17671 2.537231,-2.09079 3.816417,-1.37495 1.231579,0.68923 3.057482,-0.49842 3.691772,-2.4013 0.39802,-1.19407 4.972954,0.63939 4.972954,1.99297 0,0.52177 1.404129,1.95636 3.120276,3.18796 1.716157,1.23155 3.519326,2.5817 4.007012,3.00024 0.487705,0.41852 1.201703,0.76098 1.586664,0.76098 0.384933,0 1.533898,0.99113 2.553252,2.20254 2.099655,2.49533 2.682306,2.71712 2.682306,1.02096 0,-1.38976 2.387928,-1.15345 8.810195,0.87183 5.38677,1.69874 10.01632,1.40436 17.57734,-1.11762 3.456,-1.15276 7.44,-2.33635 8.8533,-2.63019 3.53879,-0.73575 23.36491,-10.76458 22.12629,-11.19233 -0.90543,-0.31268 -6.14679,1.78707 -8.91098,3.56982 -1.94396,1.25376 -10.57946,5.24838 -12.63326,5.84393 -1.74378,0.50566 -1.89005,0.42612 -1.19238,-0.64821 0.43737,-0.67349 2.1334,-1.89484 3.76893,-2.71409 3.50041,-1.75334 4.20431,-3.06606 1.83944,-3.43061 -1.59211,-0.2453 -1.5491,-0.33915 0.71344,-1.55497 1.32422,-0.71161 2.81093,-1.06217 3.30385,-0.77902 0.49287,0.28313 0.6459,0.23917 0.34003,-0.0979 -0.61964,-0.68266 2.57568,-2.74564 9.73344,-6.28413 6.03526,-2.98361 8.94279,-5.01126 8.4136,-5.86751 -0.22755,-0.3683 0.0359,-0.49703 0.58575,-0.28604 0.63671,0.24417 2.38294,-1.63495 4.81029,-5.17693 2.09594,-3.05826 3.81078,-5.83727 3.81078,-6.17558 0,-0.33827 0.49557,-1.02633 1.10126,-1.52903 1.33954,-1.11171 1.43201,-2.21041 0.1837,-2.18074 -0.50474,0.011 -2.56001,2.48361 -4.56724,5.49253 -2.88722,4.32803 -3.78487,5.2288 -4.29765,4.31252 -0.40238,-0.71901 -0.34092,-1.4654 0.16207,-1.96844 1.18198,-1.18196 0.99056,-3.45331 -0.29104,-3.45331 -0.60568,0 -1.09119,-0.2478 -1.07885,-0.55066 0.0329,-0.81467 4.89415,-7.49335 9.70551,-13.33457 2.32187,-2.81885 4.22158,-5.44568 4.22158,-5.83738 0,-0.39168 0.2503,-0.82232 0.55609,-0.95691 0.30586,-0.13454 1.59836,-1.57716 2.87222,-3.2057 2.88843,-3.69254 4.36422,-9.21793 5.49752,-20.58305 0.81644,-8.18719 0.763,-9.49789 -0.70299,-17.25334 -2.68873,-14.22391 -6.04297,-24.79293 -9.45459,-29.79094 -1.66193,-2.43472 -3.69106,-5.71944 -4.5092,-7.29936 -1.99708,-3.85665 -15.32572,-16.49381 -21.42387,-20.31242 -1.00951,-0.63216 -8.64944,-2.658328 -16.97767,-4.502618 -17.41988,-3.85761 -18.23861,-4.12297 -21.81372,-7.06988 -1.46163,-1.2048 -3.12846,-2.19051 -3.70407,-2.19051 -0.57564,0 -2.79327,1.6519 -4.928067,3.6709 -3.546377,3.35401 -4.186334,3.67153 -7.412806,3.67811 -4.427677,0.008 -8.394425,1.83102 -19.934398,9.156468 -9.750001,6.18914 -14.044553,10.38283 -15.455586,15.09245 -0.50287,1.67839 -0.808814,3.15603 -0.679879,3.28359 0.129005,0.12771 3.538265,-1.71614 7.576283,-4.09712 4.278333,-2.52273 8.216666,-4.33423 9.438423,-4.34145 1.153104,-0.006 4.126559,-0.54588 6.607657,-1.19796 5.172387,-1.35948 19.067263,-1.0579 22.865663,0.49625 l 2.20255,0.9012 -2.9367,0.74544 -2.936738,0.74542 2.376048,0.80059 c 1.87171,0.63061 -0.46592,0.78321 -11.012755,0.71885 -7.363869,-0.0448 -14.037358,0.15348 -14.829994,0.44112 -1.363182,0.49455 -1.343306,0.57724 0.36708,1.52761 1.21046,0.6726 4.599517,1.02881 10.251382,1.07751 11.738362,0.10137 11.328544,0.0222 9.544394,1.80766 -0.807606,0.80759 -2.231161,1.46838 -3.163502,1.46838 -0.932332,0 -2.283692,0.43035 -3.003045,0.95635 -1.189166,0.86953 -1.201893,1.04431 -0.140484,1.92537 0.642164,0.53295 1.16759,1.22791 1.16759,1.54438 0,0.75516 -5.300522,1.41942 -13.976618,1.7516 -7.017086,0.2686 -18.55764,3.04403 -21.44724,5.15792 -0.706744,0.51703 -1.611322,2.66396 -2.011521,4.77418 -0.399975,2.10906 -1.391371,5.33604 -2.203078,7.17107 -1.825394,4.12658 -1.824915,4.14649 0.08853,3.64612 1.49449,-0.39081 1.543309,-0.23031 1.093567,3.59631 -0.457739,3.89459 -0.429295,3.97973 1.027715,3.07664 1.242011,-0.7698 1.618382,-0.74029 2.199024,0.17259 1.898225,2.9841 -0.555733,6.93164 -2.58437,4.15733 -1.279532,-1.74986 -1.829856,-1.51184 -1.846054,0.79843 -0.01752,2.50454 -2.02612,9.9155 -2.13907,7.89247 -0.0761,-1.36382 -0.190223,-1.33767 -1.602357,0.3671 -0.995603,1.2019 -1.378042,1.39199 -1.107993,0.55064 0.265632,-0.82761 0.02863,-1.28483 -0.665834,-1.28483 -0.834489,0 -1.094788,1.1204 -1.151421,4.95577 -0.04029,2.72564 -0.309225,5.78167 -0.597715,6.79118 l -0.524516,1.83547 -1.18114,-2.20255 c -1.355184,-2.52707 -1.674569,-2.02061 -2.343361,3.71607 -0.238289,2.04384 -1.056247,5.51288 -1.817699,7.70895 -0.761452,2.19606 -1.610673,5.69379 -1.887169,7.77275 l -0.502713,3.7799 -3.228076,0.48407 c -3.288074,0.49308 -4.617299,1.39729 -3.274277,2.2273 0.410388,0.25363 0.746159,0.81248 0.746159,1.2419 0,0.47838 -0.444394,0.41195 -1.147444,-0.1715 -1.010539,-0.83865 -1.083603,-0.69605 -0.612402,1.19494 0.484063,1.94265 0.418514,2.05123 -0.68802,1.13959 -1.085257,-0.8941 -1.223055,-0.79557 -1.223055,0.87441 0,1.03511 -0.350767,2.09882 -0.779468,2.36375 -0.428714,0.265 -1.128861,1.35823 -1.555884,2.42943 -0.46604,1.16913 -0.916717,1.56858 -1.127385,0.99931 -0.255484,-0.69032 -0.610296,-0.73313 -1.304101,-0.15734 -0.732885,0.60825 -0.772795,1.37858 -0.172709,3.33384 0.429226,1.39857 0.564859,2.75838 0.301405,3.02183 -0.263474,0.26334 -2.296022,-0.72741 -4.516805,-2.20192 -2.22078,-1.47452 -4.247043,-2.68092 -4.502795,-2.68092 -0.255759,0 -1.5938702,0.99115 -2.9735779,2.20254 -4.3035969,3.7786 -10.2931224,2.87594 -17.5960684,-2.65187 -5.0322517,-3.80905 -6.2787297,-5.18884 -9.2112597,-10.19638 -1.418854,-2.42278 -4.303032,-7.30475 -6.409282,-10.84877 -3.659494,-6.15759 -6.263986,-12.6445 -5.544279,-13.80901 0.185639,-0.30038 -0.0539,-0.67662 -0.532259,-0.83607 -0.533079,-0.17759 -1.054371,-2.83104 -1.346562,-6.85393 -0.476243,-6.55686 -0.09537,-9.6427 0.76394,-6.18947 0.250183,1.00544 0.646801,-4.77961 0.881361,-12.85563 0.243023,-8.36756 0.93507,-17.4708 1.608869,-21.16311 0.926875,-5.07919 1.007908,-7.12742 0.374954,-9.47806 -0.444081,-1.64923 -1.400392,-8.14941 -2.125119,-14.44481 -1.066679,-9.26569 -1.160173,-12.285378 -0.490781,-15.851298 0.454797,-2.4228 1.07577,-4.78827 1.37993,-5.25658 0.304163,-0.46832 0.356129,-1.36457 0.115491,-1.99172 -0.240667,-0.62712 0.135058,-2.887004 0.834906,-5.021988 1.399369,-4.268914 6.710268,-15.261617 7.373337,-15.261617 0.229482,0 0.205757,1.073737 -0.05271,2.386085 -0.372613,1.891794 -0.294306,2.15796 0.378017,1.284819 1.027022,-1.33377 1.016905,-1.302469 -2.133545,6.607658 -2.437512,6.120112 -5.407678,16.222113 -4.914564,16.715233 0.557295,0.5573 1.884107,-0.6117 1.884107,-1.65998 0,-0.55559 0.388221,-1.94022 0.862719,-3.07695 0.474494,-1.13675 0.947961,-2.78014 1.052159,-3.652 0.226844,-1.898152 3.180052,-9.124329 4.152936,-10.161742 0.429864,-0.458407 0.492606,1.015326 0.167019,3.92314 -0.506638,4.52484 -0.479025,4.634613 0.9709,3.85862 1.475003,-0.789394 1.479726,-0.74963 0.405364,3.418692 -0.597853,2.31957 -1.706824,6.36489 -2.464393,8.98961 -1.505186,5.214978 -2.465514,10.278558 -1.949368,10.278558 0.179922,0 0.735197,-1.7345 1.233942,-3.85445 0.498749,-2.11995 1.890306,-6.596238 3.092347,-9.947278 l 2.185534,-6.09288 15.99573774,-16.205294 C 10.205153,60.507868 15.776459,55.358598 16.394523,55.740587 c 0.561651,0.347108 0.736996,0.270827 0.448992,-0.195072 -0.622055,-1.006503 15.488658,-15.476199 25.447458,-22.855436 6.002039,-4.447339 8.361772,-5.342235 26.19112,-9.932674 19.08985,-4.914959 33.081017,-7.789169 37.902757,-7.786366 3.96449,0.0021 24.4197,4.050699 34.52872,6.833782 5.86733,1.615307 32.79762,12.719835 41.59676,17.152162 3.36388,1.694446 11.97519,8.881025 21.325,17.796791 4.86193,4.636252 7.43321,9.567778 18.80923,36.075108 11.2253,26.156178 13.52694,36.865458 13.56222,63.103418 0.0222,15.49446 -0.20311,19.2421 -1.61581,27.03931 -3.36265,18.5593 -7.78537,28.09812 -18.6099,40.13717 -20.93408,23.28302 -27.11286,29.4075 -34.80168,34.49579 -7.59695,5.02749 -12.36803,7.40006 -20.82941,10.35794 -3.79952,1.32823 -9.19263,3.94293 -12.04524,5.8398 -4.705,3.12859 -18.7932,8.57416 -17.72948,6.85301 0.71341,-1.15434 -1.01556,-0.68134 -2.33534,0.63895 -1.09436,1.09473 -3.05698,1.32311 -13.26773,1.54379 -8.40061,0.18148 -11.98344,0.0167 -11.98344,-0.55061 z m 19.0888,-0.80966 c 1.37731,-0.44109 0.73588,-0.60329 -2.56968,-0.64976 -2.42278,-0.0341 -4.90064,0.25833 -5.50636,0.64976 -1.36865,0.8845 5.31425,0.8845 8.07604,0 z M 78.760698,277.8066 c -0.605714,-0.39144 -2.753199,-0.66484 -4.772198,-0.60762 l -3.670928,0.10397 3.670928,0.50348 c 6.017683,0.82536 6.049376,0.82536 4.772198,0 z m 63.506962,-4.40511 c 0.96815,-0.41605 1.09324,-0.64472 0.36707,-0.67132 -0.60571,-0.0223 -1.59686,0.27987 -2.20256,0.67132 -1.34206,0.8673 -0.18286,0.8673 1.83549,0 z M 83.899985,261.31327 c 0,-0.18758 -0.660763,-0.69488 -1.468379,-1.1271 -0.884874,-0.47357 -1.468369,-0.50523 -1.468369,-0.0796 0,0.38838 0.578176,0.85725 1.284819,1.04191 0.706661,0.18481 1.367433,0.37408 1.468368,0.42093 0.100962,0.0469 0.18357,-0.0685 0.18357,-0.25612 z m -3.670938,-2.17593 c 0,-0.6883 -2.36006,-2.62063 -3.172714,-2.59768 -0.475913,0.0139 -0.08537,0.67421 0.867963,1.46839 1.730659,1.44176 2.304751,1.72308 2.304751,1.12929 z m -12.848203,-3.35627 c -1.021755,-1.97586 -2.569659,-2.99943 -2.569659,-1.69924 0,0.51923 2.991446,3.90179 3.450662,3.90179 0.141904,0 -0.254568,-0.99115 -0.881003,-2.20255 z m 93.238176,-16.88102 c 0.82361,-1.33264 -0.68726,-0.7237 -2.93349,1.18236 l -2.20256,1.86897 2.33954,-1.15596 c 1.28673,-0.63578 2.54517,-1.48869 2.79651,-1.89537 z m 7.77254,-5.59172 c 0.94717,-1.14795 0.9032,-1.18822 -0.48787,-0.44726 -0.8408,0.44786 -1.99715,1.38199 -2.56964,2.07585 -0.94715,1.14793 -0.90319,1.18823 0.48786,0.44728 0.84081,-0.44788 1.99715,-1.38202 2.56965,-2.07587 z m -1.08241,-6.71108 c 1.15763,-1.52499 1.32111,-2.65761 0.2918,-2.02144 -0.9555,0.59053 -2.4033,3.30627 -1.76265,3.30627 0.27249,0 0.93444,-0.57819 1.47085,-1.28483 z m 4.69293,-3.81115 c 0,-0.37996 -0.27527,-0.86101 -0.6118,-1.06897 -0.3365,-0.20811 -0.61183,0.10287 -0.61183,0.69084 0,0.58793 0.27527,1.06898 0.61183,1.06898 0.33649,0 0.6118,-0.3109 0.6118,-0.69085 z m -0.14183,-9.97424 c -0.22614,-0.22615 -0.63655,0.18148 -0.91225,0.90552 -0.39843,1.04633 -0.31413,1.13064 0.41099,0.41096 0.50174,-0.49804 0.72735,-1.09044 0.50126,-1.31648 z M -30.57536,174.78451 c -0.56599,-0.56599 -0.791583,-0.15669 -0.791583,1.43545 0,2.89822 1.030186,3.93554 1.342223,1.35147 0.132528,-1.09744 -0.115274,-2.35152 -0.55064,-2.78692 z m 76.286519,-14.7533 c 0.01427,-1.87838 -0.405212,-1.29238 -1.009059,1.40719 -0.359792,1.60854 -0.29169,1.90553 0.252575,1.10125 0.409881,-0.6057 0.7503,-1.73451 0.756484,-2.50844 z m 16.163298,-35.63866 c 2.220907,-0.7415 3.565894,-1.38209 2.988868,-1.42351 -0.577046,-0.0414 -2.063763,0.24531 -3.303848,0.63734 -1.240065,0.39198 -3.24582,1.02665 -4.457217,1.41041 -1.457897,0.46186 -1.706128,0.70218 -0.73419,0.71084 0.807601,0.008 3.28548,-0.59358 5.506387,-1.33508 z m 11.379854,-2.1909 2.936738,-0.60743 -3.303838,-0.0733 c -1.817091,-0.0403 -3.799394,0.24698 -4.405098,0.63853 -0.909661,0.58788 -0.845794,0.7063 0.36708,0.68062 0.807612,-0.0168 2.789904,-0.3044 4.405118,-0.6385 z M -28.628581,109.87833 c -0.158944,-1.52326 -0.291634,-0.4569 -0.294894,2.36973 -0.0031,2.82659 0.126787,4.0729 0.28897,2.76954 0.16219,-1.30333 0.164854,-3.61601 0.0059,-5.13927 z m 123.784928,5.5891 c 1.470336,-0.14478 -4.886977,-1.29701 -7.401901,-1.34161 -3.735018,-0.0663 -2.793948,1.31407 1.101283,1.61527 1.918035,0.1485 3.927371,0.1665 4.465154,0.0404 0.537774,-0.12631 1.363753,-0.26751 1.835464,-0.31386 z m -13.27537,-1.13597 c -0.504756,-0.20367 -1.330705,-0.20367 -1.83546,0 -0.504755,0.20368 -0.09169,0.37031 0.91772,0.37031 1.009499,0 1.422484,-0.16678 0.91774,-0.37031 z m -108.967602,-14.931618 -0.02165,-1.83547 -0.587818,1.83547 c -0.323297,1.009488 -0.597529,2.496208 -0.609393,3.303808 l -0.02165,1.46838 0.630978,-1.46838 c 0.34704,-0.8076 0.621266,-2.29432 0.609396,-3.303808 z m 2.607358,-21.370716 c 0.244828,-0.965851 -0.37456,-0.104055 -1.376374,1.914824 -1.001817,2.018995 -1.818478,4.166494 -1.814809,4.772193 0.0074,1.245279 2.509471,-3.997394 3.191183,-6.687017 z M 47.05311,272.89998 c 0.529989,-0.21201 1.16322,-0.18593 1.407192,0.0581 0.243963,0.24391 -0.189662,0.41747 -0.963614,0.38562 -0.85529,-0.0353 -1.029253,-0.20922 -0.443578,-0.44356 z m -6.831887,-14.17376 c -0.257242,-0.41619 0.03759,-0.53929 0.690851,-0.28857 1.271904,0.48811 1.50462,1.01433 0.448547,1.01433 -0.379968,0 -0.892699,-0.32659 -1.139398,-0.72576 z m 19.952516,-15.707 c -0.276023,-0.71926 -0.480895,-1.85889 -0.455304,-2.53254 0.03086,-0.81116 0.285834,-0.62621 0.755156,0.54779 0.389736,0.9749 0.594609,2.11453 0.455294,2.53253 -0.139356,0.41797 -0.479143,0.17146 -0.755146,-0.54778 z m -36.4189,-26.57819 c 0.03524,-0.85529 0.209195,-1.02924 0.443563,-0.44357 0.212084,0.52999 0.186001,1.16323 -0.05794,1.40721 -0.243966,0.24389 -0.417487,-0.18981 -0.385606,-0.96364 z m 21.233377,-20.10307 c 0,-3.74967 4.537466,-5.08673 6.043702,-1.78085 0.749369,1.64464 0.675295,2.06041 -0.523164,2.93675 -0.767829,0.56147 -2.324087,1.02086 -3.458313,1.02086 -1.796461,0 -2.062225,-0.28052 -2.062225,-2.17676 z m 9.700551,-12.59286 c -1.785061,-0.66033 -1.824467,-0.74135 -1.178879,-2.42367 0.245114,-0.63876 0.988452,-1.15085 1.651909,-1.13798 1.468767,0.0284 3.775912,1.69353 3.775912,2.72513 0,1.07749 -2.347926,1.53977 -4.248942,0.83652 z m 0.998802,-11.41877 c -0.514097,-1.33978 0.679655,-2.41589 2.69951,-2.43357 1.359545,-0.0109 1.566283,0.60357 0.839183,2.49835 -0.58814,1.53264 -2.942229,1.48953 -3.538693,-0.065 z m 60.149451,-49.43261 c -2.01903,-1.19765 -3.41216,-2.18314 -3.09591,-2.19004 0.8073,-0.0168 7.8681,3.60603 7.8681,4.03787 0,0.73386 -1.20931,0.26556 -4.77219,-1.84783 z M -10.442691,56.817135 c 0.7308717,-0.807599 1.4456367,-1.46835 1.5883757,-1.46835 0.142739,0 -0.153119,0.660751 -0.657481,1.46835 -0.5043567,0.807626 -1.2191287,1.468377 -1.5883777,1.468377 -0.369261,0 -0.07343,-0.660751 0.657483,-1.468377 z"
       id="path1583" /><path
       style="fill:#000000;stroke-width:0.734183"
       d="m 116.59326,191.22465 c 0.44525,-2.74371 3.29329,-10.86309 5.67287,-16.17257 0.7492,-1.67158 1.57859,-3.90168 1.84316,-4.95572 0.42471,-1.69223 0.26083,-1.9165 -1.39952,-1.9165 -2.93685,0 -5.36918,-1.431 -6.7312,-3.9601 -1.14285,-2.12223 -1.15246,-2.54967 -0.11327,-5.03686 1.37055,-3.28023 4.1066,-5.05145 11.73311,-7.59571 4.14705,-1.38346 5.9047,-2.35062 6.34217,-3.48982 1.17606,-3.06273 4.95357,-11.32226 11.35203,-24.82115 4.65448,-9.8196 6.72211,-11.8881 11.80626,-11.81123 6.99385,0.10568 9.75795,3.8987 12.90071,17.70264 1.01688,4.46647 2.15134,7.76931 2.74709,7.99793 0.5582,0.21423 3.45237,-0.21755 6.43148,-0.95939 5.77977,-1.43926 6.80098,-1.27315 5.42871,0.88292 -0.90273,1.41827 -8.42693,6.8627 -9.48428,6.8627 -0.77922,0 -1.62056,2.14954 -1.1435,2.92145 0.75576,1.22287 3.21085,13.73058 5.16997,26.33907 2.12579,13.6811 -1.36006,10.63593 -9.54276,-8.33627 -0.52248,-1.21142 -1.50685,-3.45548 -2.18753,-4.98682 -0.68064,-1.53136 -1.66125,-4.00922 -2.17912,-5.50638 -0.5179,-1.49718 -1.42176,-2.8164 -2.00854,-2.93161 -0.58684,-0.11514 -5.94012,2.11487 -11.89623,4.95575 -5.95611,2.84089 -11.06497,5.16522 -11.353,5.16522 -0.288,0 -3.49167,4.70796 -7.11924,10.46211 -7.73301,12.26638 -14.6889,21.84201 -15.8664,21.84201 -0.54722,0 -0.68557,-0.91033 -0.403,-2.65167 z m 36.52133,-46.23826 c 2.19324,-0.64236 4.27354,-1.44026 4.62286,-1.77315 0.58782,-0.56007 -1.32289,-6.93851 -2.48476,-8.29486 -0.39516,-0.46133 -3.68523,4.48297 -7.11027,10.68532 -0.44519,0.80617 0.52183,0.68613 4.97217,-0.61731 z M 71.69513,186.3577 c -0.399976,-1.31609 -0.919217,-6.02707 -1.153858,-10.46889 -0.747698,-14.15304 -1.935797,-29.22757 -2.661796,-33.7725 -0.387026,-2.42279 -0.706174,-6.44439 -0.70923,-8.9368 -0.0062,-4.50015 -0.02312,-4.53746 -2.499323,-5.35475 -3.446577,-1.13747 -4.559318,-3.91887 -3.031076,-7.5765 2.769896,-6.62928 15.205327,-10.23117 26.082024,-7.55457 6.162006,1.51634 7.772506,2.32139 10.899168,5.44802 6.337091,6.33711 7.818281,17.85062 3.446071,26.7871 -2.823645,5.7713 -8.695162,10.9031 -15.394734,13.45519 -2.855081,1.0876 -5.548328,2.33246 -5.984979,2.76637 -0.43664,0.4339 -1.206436,3.43198 -1.710661,6.6624 -0.504194,3.23041 -1.520244,8.18614 -2.257857,11.01276 -2.498397,9.57414 -3.806932,11.53603 -5.023749,7.53217 z m 13.020711,-34.11308 c 7.727954,-5.81515 10.82799,-12.9142 8.720324,-19.96947 -1.329359,-4.45 -3.986351,-6.31087 -9.010772,-6.31087 -4.505866,0 -5.454739,0.58567 -4.201124,2.59305 0.603676,0.96663 0.889948,5.32499 0.889948,13.54903 0,6.66819 0.216598,12.12401 0.481323,12.12401 0.264725,0 1.668875,-0.89359 3.120301,-1.98575 z m 111.935569,34.13314 c -1.47723,-2.39017 -2.59458,-17.31186 -3.89166,-51.97036 -0.56582,-15.11886 -0.50338,-17.49471 0.5046,-19.20419 1.45954,-2.47527 4.60219,-3.1407 8.04297,-1.70307 3.062,1.27941 3.13138,1.35941 9.53654,10.99576 8.53108,12.83479 16.81955,26.53622 22.80297,37.6949 2.02289,3.77253 3.88528,6.52374 4.13863,6.11385 0.48297,-0.78149 -0.52871,-17.57848 -1.7763,-29.49215 -1.23905,-11.83188 -1.06831,-13.47165 1.70924,-16.41673 4.5527,-4.82726 9.12329,-4.23236 11.66722,1.51865 1.52581,3.4494 1.52696,3.51959 0.30086,18.54114 -1.18903,14.5672 -2.3698,24.20273 -4.09706,33.43325 -0.45337,2.42279 -1.06146,5.72663 -1.35128,7.34185 -0.28986,1.61518 -0.93438,2.93672 -1.43233,2.93672 -0.49792,0 -2.30941,-1.72202 -4.02556,-3.82675 -1.71612,-2.10468 -9.536,-11.76838 -17.37753,-21.47488 -7.84152,-9.7065 -14.47831,-17.64816 -14.74846,-17.64816 -0.27026,0 -0.89666,3.38644 -1.39226,7.52539 -2.29212,19.14274 -5.95604,36.52568 -7.69879,36.52568 -0.19868,0 -0.60898,-0.40091 -0.9118,-0.8909 z m -244.019433,-0.9303 c 0,-0.59788 1.101401,-2.82795 2.447558,-4.95573 5.533767,-8.74694 11.443301,-22.59795 14.493426,-33.97031 2.910861,-10.85313 5.69759,-22.75848 5.397421,-23.05865 -0.202899,-0.20283 -1.430056,0.0543 -2.727001,0.57147 -15.024801,5.99185 -18.885331,6.39746 -21.121505,2.21914 -0.9168,-1.71306 0.323486,-8.36594 1.720622,-9.22943 0.438439,-0.27112 5.113199,-1.07939 10.388352,-1.79647 5.275155,-0.71713 12.069063,-1.7032 15.097572,-2.19129 9.141719,-1.47341 9.211195,-1.46046 8.969276,1.67329 -0.114422,1.48212 0.133365,2.90574 0.550634,3.16363 1.458318,0.90128 0.774088,7.76494 -1.42235,14.26796 -9.018537,26.70127 -18.333223,43.21046 -29.040618,51.47117 -4.168562,3.21603 -4.753387,3.44182 -4.753387,1.83522 z M 0.45920174,154.90901 c -6.46548804,-1.27109 -7.17418604,-4.52344 -1.79098504,-8.21915 1.89945704,-1.30406 4.1674266,-3.11436 5.0399357,-4.02289 1.3473232,-1.40301 2.3565649,-1.65192 6.6975086,-1.65192 8.824466,0 22.383295,1.484 34.733515,3.80158 8.183291,1.53561 10.368511,3.42679 5.689937,4.92431 -3.098375,0.99172 -14.130959,2.65102 -24.778717,3.72674 -4.643715,0.46909 -10.851889,1.163 -13.795945,1.54197 -6.0958247,0.78471 -7.3460918,0.77406 -11.79524926,-0.10065 z"
       id="path1621" /></g></svg>
